<?xml version="1.0" encoding="UTF-8"?>
<svg version="1.1" xmlns="http://www.w3.org/2000/svg" viewBox="0 0 803 522" width="40" height="40">
<path d="M0 0 C264.99 0 529.98 0 803 0 C803 172.26 803 344.52 803 522 C538.01 522 273.02 522 0 522 C0 349.74 0 177.48 0 0 Z " fill="#4B5E70" transform="translate(0,0)"/>
<path d="M0 0 C1.2065625 0.0309375 1.2065625 0.0309375 2.4375 0.0625 C2.88738281 0.96226562 3.33726562 1.86203125 3.80078125 2.7890625 C4.1047583 3.39693604 4.40873535 4.00480957 4.72192383 4.63110352 C5.42384285 6.03510824 6.12549111 7.43924836 6.8269043 8.84350586 C8.88882301 12.97042934 10.95606144 17.0945754 13.03125 21.21484375 C18.11519399 31.3226706 23.10183316 41.46914638 27.96240234 51.6862793 C32.05802778 60.2905284 36.21199053 68.86572617 40.375 77.4375 C45.88165417 88.7778072 51.3646652 100.12881268 56.80834961 111.49951172 C57.26089111 112.44455566 57.71343262 113.38959961 58.1796875 114.36328125 C58.76532471 115.58785034 58.76532471 115.58785034 59.36279297 116.8371582 C60.06003046 118.28089281 60.79699714 119.70634906 61.57861328 121.10620117 C62.4375 123.0625 62.4375 123.0625 62.4375 127.0625 C56.4975 127.0625 50.5575 127.0625 44.4375 127.0625 C43.15875 124.54625 41.88 122.03 40.5625 119.4375 C40.16305176 118.65681152 39.76360352 117.87612305 39.35205078 117.07177734 C39.03220215 116.4370752 38.71235352 115.80237305 38.3828125 115.1484375 C38.05812988 114.5095459 37.73344727 113.8706543 37.39892578 113.21240234 C36.21895586 110.57380024 35.35153228 107.80459684 34.4375 105.0625 C11.6675 105.3925 -11.1025 105.7225 -34.5625 106.0625 C-39.0175 115.4675 -39.0175 115.4675 -43.5625 125.0625 C-45.5625 127.0625 -45.5625 127.0625 -49.4765625 127.2578125 C-51.04699351 127.24450376 -52.61736221 127.22063602 -54.1875 127.1875 C-54.98929687 127.17847656 -55.79109375 127.16945313 -56.6171875 127.16015625 C-58.59908523 127.13656223 -60.58082981 127.10069065 -62.5625 127.0625 C-62.04935138 122.15345494 -61.05054999 118.44150383 -58.7890625 114.0625 C-57.93187622 112.38015259 -57.93187622 112.38015259 -57.05737305 110.66381836 C-56.75294281 110.07760712 -56.44851257 109.49139587 -56.13485718 108.88742065 C-54.83619276 106.38576702 -53.56046306 103.87265743 -52.28355408 101.35984802 C-51.63295849 100.07966286 -50.98131421 98.80001011 -50.32862854 97.52088928 C-47.5440949 92.05681458 -44.87407327 86.54292912 -42.25 81 C-36.9686277 69.87850583 -31.59390611 58.80366742 -26.20776367 47.73266602 C-25.47833401 46.23324485 -24.7489233 44.73381446 -24.01953125 43.234375 C-23.65564804 42.48639145 -23.29176483 41.7384079 -22.91685486 40.96775818 C-20.25227366 35.48790315 -17.59875274 30.0027688 -14.94921875 24.515625 C-13.84321276 22.22699018 -12.73708683 19.93841335 -11.63095093 17.64984131 C-10.92125717 16.18034488 -10.21228758 14.71049847 -9.50405884 13.24029541 C-8.52536879 11.20878666 -7.54419951 9.17849325 -6.5625 7.1484375 C-6.005625 5.9939209 -5.44875 4.8394043 -4.875 3.64990234 C-3.06140712 0.07466847 -3.06140712 0.07466847 0 0 Z " fill="#E8ECEE" transform="translate(382.5625,196.9375)"/>
<path d="M0 0 C12 0 12 0 15.48046875 2.45703125 C16.41837305 3.54587409 17.32041352 4.66646151 18.1875 5.8125 C18.68032471 6.40200439 19.17314941 6.99150879 19.6809082 7.59887695 C21.15469755 9.37454115 22.57837925 11.18247204 24 13 C25.56141901 14.89672374 27.12382782 16.79263336 28.6875 18.6875 C29.40292969 19.57824219 30.11835937 20.46898437 30.85546875 21.38671875 C32.99874956 23.99847623 35.2238033 26.50365302 37.5 29 C41.41891252 33.29991791 45.09170869 37.75919547 48.75 42.28125 C50.93501569 44.92147729 53.19171391 47.4672972 55.5 50 C59.41891252 54.29991791 63.09170869 58.75919547 66.75 63.28125 C69.63595147 66.76844136 72.67700111 70.09758894 75.7265625 73.44140625 C78.9593237 77.07965124 82.00813104 80.85779763 85.0546875 84.65234375 C86.6317534 86.55558995 88.24052247 88.27262063 90 90 C90.01030746 88.88722183 90.02061493 87.77444366 90.03123474 86.62794495 C90.12879246 76.16502082 90.23150933 65.70215852 90.33933926 55.23933506 C90.39461439 49.85969196 90.44804158 44.48004348 90.49731445 39.1003418 C90.54489048 33.91320329 90.59723056 28.72613315 90.65294075 23.53907585 C90.67339505 21.55545684 90.69210292 19.57181906 90.70907402 17.58816719 C90.73305023 14.81985784 90.76311364 12.05167898 90.79467773 9.28344727 C90.8004332 8.45482681 90.80618866 7.62620636 90.81211853 6.7724762 C90.88594784 1.11405216 90.88594784 1.11405216 92 0 C97.61 0 103.22 0 109 0 C109 41.25 109 82.5 109 125 C105.68376539 126.6581173 102.55902425 126.72322418 99 126 C95.84028895 124.16963884 93.5059865 121.63212676 91 119 C90.51337891 118.4956543 90.02675781 117.99130859 89.52539062 117.47167969 C83.12913922 110.8222271 77.07496495 103.98266263 71.30859375 96.77734375 C68.64720542 93.57557201 65.84537754 90.53765082 63 87.5 C58.56165094 82.76135857 54.40857547 77.87880421 50.34375 72.8125 C47.66791401 69.60149681 44.85635999 66.54976869 42 63.5 C37.56599414 58.76424705 33.36355376 53.91342141 29.328125 48.828125 C27.22310406 46.27101902 25.05829314 43.79505035 22.85449219 41.32324219 C21.77225372 40.10855255 21.77225372 40.10855255 20.66815186 38.86932373 C20.11766174 38.2524469 19.56717163 37.63557007 19 37 C18.99413376 38.0855014 18.98826752 39.17100281 18.98222351 40.28939819 C18.9250966 50.50192671 18.85238809 60.71424024 18.76428509 70.92654991 C18.7194911 76.17725476 18.68025513 81.42788038 18.65356445 86.67871094 C18.62762125 91.74277443 18.58728332 96.80653452 18.53681374 101.87041092 C18.52008399 103.80573386 18.50860791 105.74110935 18.50238609 107.6764946 C18.49281108 110.38019635 18.46483242 113.08311112 18.43237305 115.78662109 C18.43380814 116.59294479 18.43524323 117.39926849 18.4367218 118.23002625 C18.39872742 120.45663452 18.39872742 120.45663452 18 124 C15 126 15 126 0 126 C0 84.42 0 42.84 0 0 Z " fill="#E9EDEF" transform="translate(560,198)"/>
<path d="M0 0 C12.7603387 -0.02312121 25.52067245 -0.04091395 38.28102779 -0.05181217 C44.20550715 -0.05704149 50.12997222 -0.06414001 56.05444336 -0.07543945 C61.76672571 -0.08626661 67.47899428 -0.09227647 73.19128609 -0.09487724 C75.37588277 -0.0967318 77.56047865 -0.100353 79.7450695 -0.10573006 C82.79352349 -0.11293821 85.84191979 -0.11399104 88.89038086 -0.11352539 C89.80315796 -0.11712067 90.71593506 -0.12071594 91.65637207 -0.12442017 C97.88594784 -0.11405216 97.88594784 -0.11405216 99 1 C99.12557162 3.30993382 99.17575729 5.62418536 99.1875 7.9375 C99.20167969 9.20464844 99.21585938 10.47179687 99.23046875 11.77734375 C99 15 99 15 97 17 C84.13 17 71.26 17 58 17 C58 52.64 58 88.28 58 125 C55.16970852 126.41514574 52.71620867 126.20780992 49.5625 126.25 C47.83193359 126.28867187 47.83193359 126.28867187 46.06640625 126.328125 C43 126 43 126 41.33089733 124.75355053 C39.65443687 122.54469635 39.62945706 121.36959575 39.63923645 118.61506653 C39.63511246 117.71904221 39.63098846 116.82301788 39.6267395 115.89984131 C39.63752533 114.91944885 39.64831116 113.9390564 39.65942383 112.92895508 C39.65876671 111.37748024 39.65876671 111.37748024 39.65809631 109.79466248 C39.66018949 106.36942797 39.68354598 102.94468045 39.70703125 99.51953125 C39.71262531 97.14727547 39.7168963 94.77501622 39.71989441 92.40275574 C39.73135809 86.15388448 39.76083857 79.90522184 39.79400635 73.65643311 C39.82467431 67.28205182 39.83839275 60.90763689 39.85351562 54.53320312 C39.88570664 42.02204632 39.93634623 29.51103425 40 17 C38.1902771 17.00785522 38.1902771 17.00785522 36.34399414 17.01586914 C31.88436622 17.03391611 27.42474154 17.04543089 22.96508789 17.05493164 C21.03181415 17.05997256 19.09854424 17.06680519 17.1652832 17.07543945 C14.39273128 17.08751565 11.62022959 17.09323057 8.84765625 17.09765625 C7.54297142 17.10539818 7.54297142 17.10539818 6.21192932 17.11329651 C4.14094186 17.11349185 2.07005676 17.06208168 0 17 C-1 16 -1 16 -1.1328125 12.91015625 C-1.12894531 11.00556641 -1.12894531 11.00556641 -1.125 9.0625 C-1.12757813 7.79535156 -1.13015625 6.52820313 -1.1328125 5.22265625 C-1 2 -1 2 0 0 Z " fill="#EAEEEF" transform="translate(442,198)"/>
<path d="M0 0 C5.25211681 2.58945829 9.08223391 6.40246256 12.25 11.3125 C14.09882815 17.19280065 14.32760123 24.43174696 12 30.1875 C7.81833254 37.65476333 3.22220938 40.65509687 -4.75 43.3125 C-12.01760168 44.35285198 -17.78800414 42.52631741 -23.75 38.3125 C-29.90550598 32.0199281 -31.06048704 26.67822125 -30.96875 18.06640625 C-30.5045905 12.22296968 -27.94602554 7.40093514 -23.75 3.3125 C-15.80342562 -1.89437094 -8.93241697 -3.60249544 0 0 Z " fill="#3497D9" transform="translate(219.75,225.6875)"/>
<path d="M0 0 C3.26713514 3.8452515 5.18304883 8.29379714 7.30859375 12.82421875 C7.71658707 13.68505569 8.12458038 14.54589264 8.54493713 15.43281555 C9.84667016 18.18240798 11.14202798 20.93495311 12.4375 23.6875 C13.30494984 25.5203663 14.17278441 27.35305058 15.04101562 29.18554688 C15.88055319 30.96077445 16.71975652 32.73616014 17.55859375 34.51171875 C17.94413925 35.32767014 18.32968475 36.14362152 18.72691345 36.98429871 C20.60120687 40.96778054 22.45595465 44.9601645 24.27758789 48.96801758 C24.60876114 49.69451004 24.93993439 50.4210025 25.28114319 51.16950989 C26 53 26 53 26 55 C9.17 55 -7.66 55 -25 55 C-24.16149861 50.80749307 -23.28037496 48.16167203 -21.4453125 44.4140625 C-20.91768311 43.32843018 -20.39005371 42.24279785 -19.84643555 41.12426758 C-19.27836182 39.96950928 -18.71028809 38.81475098 -18.125 37.625 C-17.24498029 35.81795911 -16.3649685 34.01091423 -15.48570251 32.20350647 C-14.58556611 30.35449435 -13.68317449 28.5065934 -12.78076172 26.65869141 C-10.05040384 21.05894254 -7.36985698 15.4353562 -4.6875 9.8125 C-3.77479783 7.90231592 -2.86204332 5.99215684 -1.94921875 4.08203125 C-1.29942392 2.72138055 -0.64966082 1.36071469 0 0 Z " fill="#4E6072" transform="translate(382,230)"/>
<path d="M0 0 C3.8026029 2.0050088 5.61790841 3.42686262 8 7 C8.62003906 6.82984375 9.24007812 6.6596875 9.87890625 6.484375 C11.77547487 5.96537223 13.67267302 5.44866732 15.5703125 4.93359375 C18.02533156 4.26531407 20.47799639 3.59038387 22.9296875 2.91015625 C24.26557056 2.54407213 25.60150757 2.17818479 26.9375 1.8125 C28.80728516 1.29623047 28.80728516 1.29623047 30.71484375 0.76953125 C34 0 34 0 38 0 C38 0.99 38 1.98 38 3 C33.919064 4.17516669 29.83488859 5.33865407 25.75 6.5 C24.59113281 6.83386719 23.43226563 7.16773438 22.23828125 7.51171875 C21.12324219 7.82753906 20.00820312 8.14335937 18.859375 8.46875 C17.83295898 8.76201172 16.80654297 9.05527344 15.74902344 9.35742188 C13 10 13 10 9 10 C8.97873047 10.88751953 8.97873047 10.88751953 8.95703125 11.79296875 C8.69387428 16.15283955 8.45754867 18.41878953 5.6875 21.9375 C1.90561226 24.83987896 -0.60358229 26.39827205 -5.4375 25.9375 C-10.02648032 25.30349614 -12.14069092 23.72576638 -15 20 C-17.47951515 16.45783549 -17.43891203 13.24281627 -17 9 C-12.85223264 1.29700348 -8.65429737 -1.37988797 0 0 Z " fill="#3496D7" transform="translate(150,253)"/>
<path d="M0 0 C0.99 0 1.98 0 3 0 C2.33425862 6.48906541 0.99578944 12.67081322 -0.5625 19 C-0.79646484 19.96550781 -1.03042969 20.93101562 -1.27148438 21.92578125 C-1.84373134 24.28484017 -2.41997829 26.64284292 -3 29 C-1.81857422 29.43119141 -1.81857422 29.43119141 -0.61328125 29.87109375 C2.84757263 31.36614124 3.58955802 32.51101193 5 36 C5.57298155 40.32483336 5.49973417 43.8506114 3.75 47.875 C0.66548362 51.62048418 -1.57173819 53.12352443 -6.375 53.9375 C-9.96223 54.23250247 -11.00034648 53.99982676 -14.375 52.3125 C-19.70358398 47.61827126 -19.70358398 47.61827126 -20.43359375 43.6328125 C-20.44246991 37.93431526 -19.97753588 34.41948432 -16 30 C-12.78542734 27.64264672 -9.90339153 27.82257311 -6 28 C-5.83177734 26.34484375 -5.83177734 26.34484375 -5.66015625 24.65625 C-5.0147243 19.49279439 -3.74258395 14.53023952 -2.4375 9.5 C-2.20353516 8.5821875 -1.96957031 7.664375 -1.72851562 6.71875 C-1.15666285 4.47802077 -0.58041707 2.23852312 0 0 Z " fill="#3496D7" transform="translate(204,270)"/>
<path d="M0 0 C0.89138672 0.27263672 0.89138672 0.27263672 1.80078125 0.55078125 C3.55199847 1.08186579 5.30617068 1.60326159 7.0625 2.1171875 C9.03268885 2.70929213 10.99159931 3.34020296 12.9375 4.0078125 C15.64930923 4.88472907 18.17017968 5.65029863 21 6 C23.79311693 4.28232418 23.79311693 4.28232418 26 2 C29.40681543 1.44252111 31.72313302 1.22588154 34.74609375 3.05859375 C38.06154515 5.73798733 39.79844419 7.52192406 40.375 11.75 C39.8528401 16.2753858 38.15770622 17.7671103 35 21 C31.89951072 22.55024464 29.42105782 22.28992015 26 22 C23.24670979 20.20437595 21.47372539 18.94745078 20 16 C19.960008 14.00039988 19.95653201 11.99952758 20 10 C19.32195312 9.82984375 18.64390625 9.6596875 17.9453125 9.484375 C11.40214525 7.780614 5.21608631 5.65633189 -1 3 C-0.67 2.01 -0.34 1.02 0 0 Z " fill="#3495D6" transform="translate(233,257)"/>
<path d="M0 0 C4.99503071 0.4913145 6.31841769 1.88091769 9.8125 5.375 C11.1854863 8.1209726 10.93662634 10.3339047 10.8125 13.375 C10.4825 14.365 10.1525 15.355 9.8125 16.375 C11.72710039 18.14811263 13.64407493 19.91853362 15.5625 21.6875 C16.10132813 22.18701172 16.64015625 22.68652344 17.1953125 23.20117188 C19.96853952 25.75456993 22.73440229 28.18596449 25.8125 30.375 C25.3175 31.86 25.3175 31.86 24.8125 33.375 C21.97285719 32.08372999 19.92014367 30.72270483 17.71875 28.51953125 C17.16316406 27.98005859 16.60757813 27.44058594 16.03515625 26.88476562 C14.8808447 25.74746774 13.73243682 24.60414848 12.58984375 23.45507812 C10.73741731 21.61743153 10.73741731 21.61743153 7.8125 19.375 C5.8001428 19.64913998 5.8001428 19.64913998 3.8125 20.375 C0.375 20.75 0.375 20.75 -3.1875 20.375 C-7.06699018 17.17020377 -8.99576445 15.06866403 -9.5625 10.0625 C-9.09536625 5.46901813 -7.66709782 4.26052015 -4.1875 1.375 C-3.1875 0.375 -3.1875 0.375 0 0 Z " fill="#3495D6" transform="translate(169.1875,196.625)"/>
<path d="M0 0 C2.66058731 2.14144833 3.7253011 3.56867416 4.37109375 6.93359375 C4.59425621 10.51095567 4.15244562 12.68848069 2.5625 15.9375 C-0.99921415 18.80424554 -4.47111448 19.31096221 -9 19 C-10.34807331 18.36366631 -11.68401186 17.70028383 -13 17 C-13.46897705 17.36875244 -13.9379541 17.73750488 -14.42114258 18.11743164 C-16.54342743 19.77655795 -18.67763889 21.41959313 -20.8125 23.0625 C-21.91948242 23.93358398 -21.91948242 23.93358398 -23.04882812 24.82226562 C-23.76103516 25.36689453 -24.47324219 25.91152344 -25.20703125 26.47265625 C-25.8616333 26.98062744 -26.51623535 27.48859863 -27.19067383 28.01196289 C-27.78775146 28.33801514 -28.3848291 28.66406738 -29 29 C-29.99 28.67 -30.98 28.34 -32 28 C-32 27.34 -32 26.68 -32 26 C-30.65478516 24.76318359 -30.65478516 24.76318359 -28.7890625 23.3984375 C-28.12132812 22.90859375 -27.45359375 22.41875 -26.765625 21.9140625 C-26.05921875 21.40617187 -25.3528125 20.89828125 -24.625 20.375 C-23.92632812 19.859375 -23.22765625 19.34375 -22.5078125 18.8125 C-17.26310351 15 -17.26310351 15 -15 15 C-15.226875 13.783125 -15.45375 12.56625 -15.6875 11.3125 C-16.06734597 8.24117401 -16.05387003 7.12758691 -14.8125 4.1875 C-10.32105744 -1.23320654 -6.79557188 -2.00749922 0 0 Z " fill="#3495D7" transform="translate(260,201)"/>
</svg>
